<?xml version="1.0" standalone="no"?>
<!DOCTYPE svg PUBLIC "-//W3C//DTD SVG 20010904//EN"
 "http://www.w3.org/TR/2001/REC-SVG-20010904/DTD/svg10.dtd">
<svg version="1.0" xmlns="http://www.w3.org/2000/svg"
 width="70.000000pt" height="70.000000pt" viewBox="0 0 70.000000 70.000000"
 preserveAspectRatio="xMidYMid meet">
<metadata>
Created by potrace 1.11, written by Peter Selinger 2001-2013
</metadata>
<g transform="translate(0.000000,70.000000) scale(0.100000,-0.100000)"
fill="#000000" stroke="none">
<path d="M239 678 c0 -13 -1 -66 -2 -118 l-2 -95 -117 -3 -118 -3 0 -109 0
-110 98 -1 c53 -1 108 0 120 1 21 1 23 -2 22 -32 -1 -18 -2 -72 -1 -120 l1
-88 110 0 110 0 0 120 0 120 120 0 120 0 0 110 0 110 -67 1 c-38 0 -92 0 -120
-1 l-53 -1 0 120 0 121 -110 0 c-107 0 -110 -1 -111 -22z"/>
</g>
</svg>
